<mxfile host="Electron" modified="2024-04-22T12:05:53.542Z" agent="Mozilla/5.0 (Macintosh; Intel Mac OS X 10_15_7) AppleWebKit/537.36 (KHTML, like Gecko) draw.io/24.1.0 Chrome/120.0.6099.109 Electron/28.1.0 Safari/537.36" etag="ylULs_3RRyyK5muRdn4u" version="24.1.0" type="device">
  <diagram name="Page-1" id="QHq0bRajf7NPpXD1c_ty">
    <mxGraphModel dx="2177" dy="1578" grid="1" gridSize="10" guides="1" tooltips="1" connect="1" arrows="1" fold="1" page="1" pageScale="1" pageWidth="827" pageHeight="1169" math="0" shadow="0">
      <root>
        <mxCell id="0" />
        <mxCell id="1" parent="0" />
        <mxCell id="X8PYBQBlHGWZiBSrKf82-1" value="Команда" style="shape=umlActor;verticalLabelPosition=bottom;verticalAlign=top;html=1;outlineConnect=0;" vertex="1" parent="1">
          <mxGeometry x="30" y="45" width="30" height="60" as="geometry" />
        </mxCell>
        <mxCell id="X8PYBQBlHGWZiBSrKf82-4" value="openapi&lt;div&gt;ayncapi&lt;/div&gt;&lt;div&gt;etc...&lt;/div&gt;" style="strokeWidth=2;html=1;shape=mxgraph.flowchart.document2;whiteSpace=wrap;size=0.25;fillColor=#d5e8d4;strokeColor=#82b366;" vertex="1" parent="1">
          <mxGeometry x="310" y="30" width="100" height="90" as="geometry" />
        </mxCell>
        <mxCell id="X8PYBQBlHGWZiBSrKf82-5" style="edgeStyle=orthogonalEdgeStyle;rounded=0;orthogonalLoop=1;jettySize=auto;html=1;exitX=0.5;exitY=0.5;exitDx=0;exitDy=0;exitPerimeter=0;entryX=0;entryY=0.5;entryDx=0;entryDy=0;entryPerimeter=0;" edge="1" parent="1" source="X8PYBQBlHGWZiBSrKf82-1" target="X8PYBQBlHGWZiBSrKf82-4">
          <mxGeometry relative="1" as="geometry" />
        </mxCell>
        <mxCell id="X8PYBQBlHGWZiBSrKf82-8" value="Пишет&lt;div&gt;спецификацию&lt;/div&gt;" style="edgeLabel;html=1;align=center;verticalAlign=middle;resizable=0;points=[];" vertex="1" connectable="0" parent="X8PYBQBlHGWZiBSrKf82-5">
          <mxGeometry x="0.0182" y="-1" relative="1" as="geometry">
            <mxPoint as="offset" />
          </mxGeometry>
        </mxCell>
        <mxCell id="X8PYBQBlHGWZiBSrKf82-15" value="Сообщество" style="shape=umlActor;verticalLabelPosition=bottom;verticalAlign=top;html=1;outlineConnect=0;" vertex="1" parent="1">
          <mxGeometry x="40" y="535" width="30" height="60" as="geometry" />
        </mxCell>
        <mxCell id="X8PYBQBlHGWZiBSrKf82-17" value="rest-api-guide" style="strokeWidth=2;html=1;shape=mxgraph.flowchart.document2;whiteSpace=wrap;size=0.25;fillColor=#f5f5f5;fontColor=#333333;strokeColor=#666666;" vertex="1" parent="1">
          <mxGeometry x="245" y="535" width="100" height="60" as="geometry" />
        </mxCell>
        <mxCell id="X8PYBQBlHGWZiBSrKf82-18" style="edgeStyle=orthogonalEdgeStyle;rounded=0;orthogonalLoop=1;jettySize=auto;html=1;exitX=0.5;exitY=0.5;exitDx=0;exitDy=0;exitPerimeter=0;entryX=0;entryY=0.5;entryDx=0;entryDy=0;entryPerimeter=0;" edge="1" parent="1" source="X8PYBQBlHGWZiBSrKf82-15" target="X8PYBQBlHGWZiBSrKf82-17">
          <mxGeometry relative="1" as="geometry" />
        </mxCell>
        <mxCell id="X8PYBQBlHGWZiBSrKf82-19" value="Формирует&amp;nbsp;&lt;div&gt;договоренности&lt;/div&gt;" style="edgeLabel;html=1;align=center;verticalAlign=middle;resizable=0;points=[];" vertex="1" connectable="0" parent="X8PYBQBlHGWZiBSrKf82-18">
          <mxGeometry x="-0.1216" y="-1" relative="1" as="geometry">
            <mxPoint as="offset" />
          </mxGeometry>
        </mxCell>
        <mxCell id="X8PYBQBlHGWZiBSrKf82-28" value="" style="group;" vertex="1" connectable="0" parent="1">
          <mxGeometry x="230" y="215" width="240" height="180" as="geometry" />
        </mxCell>
        <mxCell id="X8PYBQBlHGWZiBSrKf82-24" value="&lt;p style=&quot;margin-top: 12px; padding-left: 0px;&quot;&gt;&lt;b&gt;Gitlab&lt;/b&gt;&lt;/p&gt;" style="rounded=1;whiteSpace=wrap;html=1;align=left;verticalAlign=top;fillColor=#ffe6cc;strokeColor=#d79b00;" vertex="1" parent="X8PYBQBlHGWZiBSrKf82-28">
          <mxGeometry width="240" height="180" as="geometry" />
        </mxCell>
        <mxCell id="X8PYBQBlHGWZiBSrKf82-25" value="API" style="shape=datastore;whiteSpace=wrap;html=1;" vertex="1" parent="X8PYBQBlHGWZiBSrKf82-28">
          <mxGeometry x="95" y="20" width="60" height="60" as="geometry" />
        </mxCell>
        <mxCell id="X8PYBQBlHGWZiBSrKf82-26" value="Guide" style="shape=datastore;whiteSpace=wrap;html=1;" vertex="1" parent="X8PYBQBlHGWZiBSrKf82-28">
          <mxGeometry x="35" y="90" width="60" height="60" as="geometry" />
        </mxCell>
        <mxCell id="X8PYBQBlHGWZiBSrKf82-27" value="Rules" style="shape=datastore;whiteSpace=wrap;html=1;" vertex="1" parent="X8PYBQBlHGWZiBSrKf82-28">
          <mxGeometry x="160" y="90" width="60" height="60" as="geometry" />
        </mxCell>
        <mxCell id="X8PYBQBlHGWZiBSrKf82-7" value="сохраняется в&amp;nbsp;&lt;div&gt;API репозитории&lt;/div&gt;&lt;div&gt;команды&lt;/div&gt;" style="edgeStyle=orthogonalEdgeStyle;rounded=0;orthogonalLoop=1;jettySize=auto;html=1;exitX=0.49;exitY=0.844;exitDx=0;exitDy=0;exitPerimeter=0;entryX=0.5;entryY=0;entryDx=0;entryDy=0;" edge="1" parent="1" source="X8PYBQBlHGWZiBSrKf82-4" target="X8PYBQBlHGWZiBSrKf82-25">
          <mxGeometry relative="1" as="geometry">
            <mxPoint x="360" y="225" as="targetPoint" />
          </mxGeometry>
        </mxCell>
        <mxCell id="X8PYBQBlHGWZiBSrKf82-21" style="edgeStyle=orthogonalEdgeStyle;rounded=0;orthogonalLoop=1;jettySize=auto;html=1;exitX=0.5;exitY=0;exitDx=0;exitDy=0;exitPerimeter=0;entryX=0.5;entryY=1;entryDx=0;entryDy=0;" edge="1" parent="1" source="X8PYBQBlHGWZiBSrKf82-17" target="X8PYBQBlHGWZiBSrKf82-26">
          <mxGeometry relative="1" as="geometry">
            <mxPoint x="360" y="355" as="targetPoint" />
          </mxGeometry>
        </mxCell>
        <mxCell id="X8PYBQBlHGWZiBSrKf82-22" value="Сохраняет&amp;nbsp;&lt;div&gt;описание&lt;/div&gt;" style="edgeLabel;html=1;align=center;verticalAlign=middle;resizable=0;points=[];" vertex="1" connectable="0" parent="X8PYBQBlHGWZiBSrKf82-21">
          <mxGeometry x="-0.2111" relative="1" as="geometry">
            <mxPoint y="1" as="offset" />
          </mxGeometry>
        </mxCell>
        <mxCell id="X8PYBQBlHGWZiBSrKf82-29" style="edgeStyle=orthogonalEdgeStyle;rounded=0;orthogonalLoop=1;jettySize=auto;html=1;exitX=1;exitY=0.5;exitDx=0;exitDy=0;exitPerimeter=0;" edge="1" parent="1" source="X8PYBQBlHGWZiBSrKf82-17" target="X8PYBQBlHGWZiBSrKf82-27">
          <mxGeometry relative="1" as="geometry" />
        </mxCell>
        <mxCell id="X8PYBQBlHGWZiBSrKf82-30" value="Реализация&amp;nbsp;&lt;div&gt;автоматизированных&amp;nbsp;&lt;/div&gt;&lt;div&gt;правил&lt;/div&gt;" style="edgeLabel;html=1;align=center;verticalAlign=middle;resizable=0;points=[];" vertex="1" connectable="0" parent="X8PYBQBlHGWZiBSrKf82-29">
          <mxGeometry x="-0.05" y="1" relative="1" as="geometry">
            <mxPoint x="1" y="-34" as="offset" />
          </mxGeometry>
        </mxCell>
        <mxCell id="X8PYBQBlHGWZiBSrKf82-31" style="edgeStyle=orthogonalEdgeStyle;rounded=0;orthogonalLoop=1;jettySize=auto;html=1;exitX=1;exitY=0.5;exitDx=0;exitDy=0;entryX=0;entryY=0.5;entryDx=0;entryDy=0;" edge="1" parent="1" source="X8PYBQBlHGWZiBSrKf82-25" target="X8PYBQBlHGWZiBSrKf82-33">
          <mxGeometry relative="1" as="geometry">
            <mxPoint x="680" y="265" as="targetPoint" />
          </mxGeometry>
        </mxCell>
        <mxCell id="X8PYBQBlHGWZiBSrKf82-32" style="edgeStyle=orthogonalEdgeStyle;rounded=0;orthogonalLoop=1;jettySize=auto;html=1;exitX=1;exitY=0.5;exitDx=0;exitDy=0;entryX=0.5;entryY=1;entryDx=0;entryDy=0;" edge="1" parent="1" source="X8PYBQBlHGWZiBSrKf82-27" target="X8PYBQBlHGWZiBSrKf82-33">
          <mxGeometry relative="1" as="geometry">
            <mxPoint x="730" y="295" as="targetPoint" />
          </mxGeometry>
        </mxCell>
        <mxCell id="X8PYBQBlHGWZiBSrKf82-41" style="edgeStyle=orthogonalEdgeStyle;rounded=0;orthogonalLoop=1;jettySize=auto;html=1;exitX=1;exitY=0.5;exitDx=0;exitDy=0;" edge="1" parent="1" source="X8PYBQBlHGWZiBSrKf82-33" target="X8PYBQBlHGWZiBSrKf82-38">
          <mxGeometry relative="1" as="geometry" />
        </mxCell>
        <mxCell id="X8PYBQBlHGWZiBSrKf82-33" value="Сборка проекта&lt;div&gt;GitlabCI&lt;/div&gt;" style="shape=process;whiteSpace=wrap;html=1;backgroundOutline=1;rounded=1;" vertex="1" parent="1">
          <mxGeometry x="600" y="235" width="120" height="60" as="geometry" />
        </mxCell>
        <mxCell id="X8PYBQBlHGWZiBSrKf82-45" style="edgeStyle=orthogonalEdgeStyle;rounded=0;orthogonalLoop=1;jettySize=auto;html=1;exitX=1;exitY=0.5;exitDx=0;exitDy=0;exitPerimeter=0;entryX=0;entryY=0.5;entryDx=0;entryDy=0;" edge="1" parent="1" source="X8PYBQBlHGWZiBSrKf82-37" target="X8PYBQBlHGWZiBSrKf82-43">
          <mxGeometry relative="1" as="geometry" />
        </mxCell>
        <mxCell id="X8PYBQBlHGWZiBSrKf82-37" value="Java impl stubs" style="strokeWidth=2;html=1;shape=mxgraph.flowchart.document2;whiteSpace=wrap;size=0.25;" vertex="1" parent="1">
          <mxGeometry x="810" y="125" width="100" height="60" as="geometry" />
        </mxCell>
        <mxCell id="X8PYBQBlHGWZiBSrKf82-44" style="edgeStyle=orthogonalEdgeStyle;rounded=0;orthogonalLoop=1;jettySize=auto;html=1;exitX=1;exitY=0.5;exitDx=0;exitDy=0;exitPerimeter=0;entryX=0;entryY=0.5;entryDx=0;entryDy=0;" edge="1" parent="1" source="X8PYBQBlHGWZiBSrKf82-38" target="X8PYBQBlHGWZiBSrKf82-43">
          <mxGeometry relative="1" as="geometry" />
        </mxCell>
        <mxCell id="X8PYBQBlHGWZiBSrKf82-38" value="Java, JS, etc&lt;div&gt;Client&lt;/div&gt;" style="strokeWidth=2;html=1;shape=mxgraph.flowchart.document2;whiteSpace=wrap;size=0.25;" vertex="1" parent="1">
          <mxGeometry x="810" y="235" width="100" height="60" as="geometry" />
        </mxCell>
        <mxCell id="X8PYBQBlHGWZiBSrKf82-47" style="edgeStyle=orthogonalEdgeStyle;rounded=0;orthogonalLoop=1;jettySize=auto;html=1;exitX=1;exitY=0.5;exitDx=0;exitDy=0;exitPerimeter=0;" edge="1" parent="1" source="X8PYBQBlHGWZiBSrKf82-39" target="X8PYBQBlHGWZiBSrKf82-46">
          <mxGeometry relative="1" as="geometry" />
        </mxCell>
        <mxCell id="X8PYBQBlHGWZiBSrKf82-39" value="Клиентская документация" style="strokeWidth=2;html=1;shape=mxgraph.flowchart.document2;whiteSpace=wrap;size=0.25;" vertex="1" parent="1">
          <mxGeometry x="810" y="345" width="100" height="60" as="geometry" />
        </mxCell>
        <mxCell id="X8PYBQBlHGWZiBSrKf82-40" style="edgeStyle=orthogonalEdgeStyle;rounded=0;orthogonalLoop=1;jettySize=auto;html=1;exitX=1;exitY=0.5;exitDx=0;exitDy=0;entryX=0;entryY=0.5;entryDx=0;entryDy=0;entryPerimeter=0;" edge="1" parent="1" source="X8PYBQBlHGWZiBSrKf82-33" target="X8PYBQBlHGWZiBSrKf82-37">
          <mxGeometry relative="1" as="geometry" />
        </mxCell>
        <mxCell id="X8PYBQBlHGWZiBSrKf82-42" style="edgeStyle=orthogonalEdgeStyle;rounded=0;orthogonalLoop=1;jettySize=auto;html=1;exitX=1;exitY=0.5;exitDx=0;exitDy=0;entryX=0;entryY=0.5;entryDx=0;entryDy=0;entryPerimeter=0;" edge="1" parent="1" source="X8PYBQBlHGWZiBSrKf82-33" target="X8PYBQBlHGWZiBSrKf82-39">
          <mxGeometry relative="1" as="geometry" />
        </mxCell>
        <mxCell id="X8PYBQBlHGWZiBSrKf82-43" value="Artifactory" style="shape=datastore;whiteSpace=wrap;html=1;fillColor=#d5e8d4;strokeColor=#82b366;" vertex="1" parent="1">
          <mxGeometry x="1020" y="185" width="60" height="60" as="geometry" />
        </mxCell>
        <mxCell id="X8PYBQBlHGWZiBSrKf82-46" value="Внешний сайт&lt;div&gt;(pay.raif.ru/dev)&lt;/div&gt;" style="whiteSpace=wrap;html=1;shape=mxgraph.basic.document;fillColor=#e3c800;fontColor=#000000;strokeColor=#B09500;" vertex="1" parent="1">
          <mxGeometry x="1010" y="325" width="100" height="100" as="geometry" />
        </mxCell>
        <mxCell id="X8PYBQBlHGWZiBSrKf82-48" value="Backstage" style="whiteSpace=wrap;html=1;shape=mxgraph.basic.document;fillColor=#647687;fontColor=#ffffff;strokeColor=#314354;" vertex="1" parent="1">
          <mxGeometry x="610" y="20" width="100" height="100" as="geometry" />
        </mxCell>
        <mxCell id="X8PYBQBlHGWZiBSrKf82-49" style="edgeStyle=orthogonalEdgeStyle;rounded=0;orthogonalLoop=1;jettySize=auto;html=1;exitX=0.5;exitY=0;exitDx=0;exitDy=0;entryX=0.5;entryY=1;entryDx=0;entryDy=0;entryPerimeter=0;" edge="1" parent="1" source="X8PYBQBlHGWZiBSrKf82-33" target="X8PYBQBlHGWZiBSrKf82-48">
          <mxGeometry relative="1" as="geometry" />
        </mxCell>
        <mxCell id="X8PYBQBlHGWZiBSrKf82-53" style="edgeStyle=orthogonalEdgeStyle;rounded=0;orthogonalLoop=1;jettySize=auto;html=1;exitX=0;exitY=0.5;exitDx=0;exitDy=0;entryX=1;entryY=0.5;entryDx=0;entryDy=0;" edge="1" parent="1" source="X8PYBQBlHGWZiBSrKf82-50" target="X8PYBQBlHGWZiBSrKf82-43">
          <mxGeometry relative="1" as="geometry" />
        </mxCell>
        <mxCell id="X8PYBQBlHGWZiBSrKf82-50" value="Service Impl" style="rounded=1;whiteSpace=wrap;html=1;" vertex="1" parent="1">
          <mxGeometry x="1220" y="135" width="120" height="60" as="geometry" />
        </mxCell>
        <mxCell id="X8PYBQBlHGWZiBSrKf82-52" style="edgeStyle=orthogonalEdgeStyle;rounded=0;orthogonalLoop=1;jettySize=auto;html=1;exitX=0;exitY=0.5;exitDx=0;exitDy=0;entryX=1;entryY=0.5;entryDx=0;entryDy=0;" edge="1" parent="1" source="X8PYBQBlHGWZiBSrKf82-51" target="X8PYBQBlHGWZiBSrKf82-43">
          <mxGeometry relative="1" as="geometry" />
        </mxCell>
        <mxCell id="X8PYBQBlHGWZiBSrKf82-51" value="Service Client" style="rounded=1;whiteSpace=wrap;html=1;" vertex="1" parent="1">
          <mxGeometry x="1220" y="235" width="120" height="60" as="geometry" />
        </mxCell>
      </root>
    </mxGraphModel>
  </diagram>
</mxfile>
